{
  "accessors": [
    {
      "bufferView": 2,
      "componentType": 5126,
      "count": 1519,
      "max": [
        4.965488433837891,
        7.619241714477539,
        1.6136953830718994
      ],
      "min": [
        -4.992105484008789,
        0.05461263656616211,
        -5.197411060333252
      ],
      "type": "VEC3"
    },
    {
      "bufferView": 2,
      "byteOffset": 18228,
      "componentType": 5126,
      "count": 1519,
      "max": [
        1.0,
        1.0,
        1.0
      ],
      "min": [
        -1.0,
        -1.0,
        -1.0
      ],
      "type": "VEC3"
    },
    {
      "bufferView": 1,
      "componentType": 5126,
      "count": 1519,
      "max": [
        1.0,
        1.0
      ],
      "min": [
        0.0,
        0.0
      ],
      "type": "VEC2"
    },
    {
      "bufferView": 0,
      "componentType": 5125,
      "count": 4614,
      "type": "SCALAR"
    },
    {
      "bufferView": 2,
      "byteOffset": 36456,
      "componentType": 5126,
      "count": 46,
      "max": [
        2.905456066131592,
        5.301885604858398,
        0.43719732761383057
      ],
      "min": [
        -1.5342862606048584,
        0.8164877891540527,
        0.03938557207584381
      ],
      "type": "VEC3"
    },
    {
      "bufferView": 2,
      "byteOffset": 37008,
      "componentType": 5126,
      "count": 46,
      "max": [
        0.8609559535980225,
        0.8698095083236694,
        0.500136137008667
      ],
      "min": [
        -0.8609560132026672,
        -0.8686082363128662,
        0.4435306489467621
      ],
      "type": "VEC3"
    },
    {
      "bufferView": 1,
      "byteOffset": 12152,
      "componentType": 5126,
      "count": 46,
      "max": [
        0.6249997615814209,
        0.6884398460388184
      ],
      "min": [
        0.375,
        0.3125
      ],
      "type": "VEC2"
    },
    {
      "bufferView": 0,
      "byteOffset": 18456,
      "componentType": 5125,
      "count": 132,
      "type": "SCALAR"
    },
    {
      "bufferView": 2,
      "byteOffset": 37560,
      "componentType": 5126,
      "count": 24,
      "max": [
        1.9532639980316162,
        4.349308967590332,
        -4.698771953582764
      ],
      "min": [
        -2.224853277206421,
        1.8409020900726318,
        -4.698771953582764
      ],
      "type": "VEC3"
    },
    {
      "bufferView": 2,
      "byteOffset": 37848,
      "componentType": 5126,
      "count": 24,
      "max": [
        0.0,
        0.0,
        -1.0
      ],
      "min": [
        0.0,
        0.0,
        -1.0
      ],
      "type": "VEC3"
    },
    {
      "bufferView": 1,
      "byteOffset": 12520,
      "componentType": 5126,
      "count": 24,
      "max": [
        0.5833333134651184,
        0.6875
      ],
      "min": [
        0.4166666567325592,
        0.5625
      ],
      "type": "VEC2"
    },
    {
      "bufferView": 0,
      "byteOffset": 18984,
      "componentType": 5125,
      "count": 84,
      "type": "SCALAR"
    },
    {
      "bufferView": 2,
      "byteOffset": 38136,
      "componentType": 5126,
      "count": 5301,
      "max": [
        1.0178240537643433,
        1.4860466718673706,
        1.0357941389083862
      ],
      "min": [
        -1.0178213119506836,
        -1.0,
        -1.035793662071228
      ],
      "type": "VEC3"
    },
    {
      "bufferView": 2,
      "byteOffset": 101748,
      "componentType": 5126,
      "count": 5301,
      "max": [
        0.9997843503952026,
        1.0,
        0.9998731017112732
      ],
      "min": [
        -0.9997842311859131,
        -1.0,
        -0.9997590780258179
      ],
      "type": "VEC3"
    },
    {
      "bufferView": 1,
      "byteOffset": 12712,
      "componentType": 5126,
      "count": 5301,
      "max": [
        1.0,
        1.0
      ],
      "min": [
        0.0,
        -7.450580596923828e-08
      ],
      "type": "VEC2"
    },
    {
      "bufferView": 0,
      "byteOffset": 19320,
      "componentType": 5125,
      "count": 10002,
      "type": "SCALAR"
    },
    {
      "bufferView": 2,
      "byteOffset": 165360,
      "componentType": 5126,
      "count": 240,
      "max": [
        0.9806528091430664,
        1.4003735780715942,
        0.9981920719146729
      ],
      "min": [
        -0.9806516170501709,
        0.8163248300552368,
        -0.9981917142868042
      ],
      "type": "VEC3"
    },
    {
      "bufferView": 2,
      "byteOffset": 168240,
      "componentType": 5126,
      "count": 240,
      "max": [
        0.18432781100273132,
        1.0,
        0.1814122349023819
      ],
      "min": [
        -0.184328094124794,
        -1.0,
        -0.18141132593154907
      ],
      "type": "VEC3"
    },
    {
      "bufferView": 1,
      "byteOffset": 55120,
      "componentType": 5126,
      "count": 240,
      "max": [
        1.0,
        1.0
      ],
      "min": [
        0.0,
        0.0
      ],
      "type": "VEC2"
    },
    {
      "bufferView": 0,
      "byteOffset": 59328,
      "componentType": 5125,
      "count": 414,
      "type": "SCALAR"
    },
    {
      "bufferView": 2,
      "byteOffset": 171120,
      "componentType": 5126,
      "count": 80,
      "max": [
        0.9316200017929077,
        0.8699636459350586,
        0.94828200340271
      ],
      "min": [
        -0.9316190481185913,
        0.8163305521011353,
        -0.9482821226119995
      ],
      "type": "VEC3"
    },
    {
      "bufferView": 2,
      "byteOffset": 172080,
      "componentType": 5126,
      "count": 80,
      "max": [
        1.0,
        0.0,
        1.0
      ],
      "min": [
        -1.0,
        0.0,
        -1.0
      ],
      "type": "VEC3"
    },
    {
      "bufferView": 1,
      "byteOffset": 57040,
      "componentType": 5126,
      "count": 80,
      "max": [
        1.0,
        1.0
      ],
      "min": [
        0.0,
        0.0
      ],
      "type": "VEC2"
    },
    {
      "bufferView": 0,
      "byteOffset": 60984,
      "componentType": 5125,
      "count": 120,
      "type": "SCALAR"
    }
  ],
  "asset": {
    "extras": {
      "author": "John Dinwiddie (https://sketchfab.com/theoreticalmodeling)",
      "license": "CC-BY-4.0 (http://creativecommons.org/licenses/by/4.0/)",
      "source": "https://sketchfab.com/3d-models/dslr-camera-4b0f32666d1c4fabbb26aa3ced6b36f4",
      "title": "DSLR Camera"
    },
    "generator": "Sketchfab-12.68.0",
    "version": "2.0"
  },
  "bufferViews": [
    {
      "buffer": 0,
      "byteLength": 61464,
      "name": "floatBufferViews",
      "target": 34963
    },
    {
      "buffer": 0,
      "byteLength": 57680,
      "byteOffset": 61464,
      "byteStride": 8,
      "name": "floatBufferViews",
      "target": 34962
    },
    {
      "buffer": 0,
      "byteLength": 173040,
      "byteOffset": 119144,
      "byteStride": 12,
      "name": "floatBufferViews",
      "target": 34962
    }
  ],
  "buffers": [
    {
      "byteLength": 292184,
      "uri": "cam.bin"
    }
  ],
  "materials": [
    {
      "doubleSided": true,
      "name": "pasted__lambert2",
      "pbrMetallicRoughness": {
        "baseColorFactor": [
          0.0323,
          0.0323,
          0.0323,
          1.0
        ],
        "metallicFactor": 0.0,
        "roughnessFactor": 0.6
      }
    },
    {
      "doubleSided": true,
      "name": "pasted__lambert3",
      "pbrMetallicRoughness": {
        "metallicFactor": 0.0,
        "roughnessFactor": 0.6
      }
    },
    {
      "doubleSided": true,
      "name": "lambert1",
      "pbrMetallicRoughness": {
        "baseColorFactor": [
          0.5,
          0.5,
          0.5,
          1.0
        ],
        "metallicFactor": 0.0,
        "roughnessFactor": 0.6
      }
    }
  ],
  "meshes": [
    {
      "name": "pasted__Camera_Body_pasted__lambert2_0",
      "primitives": [
        {
          "attributes": {
            "NORMAL": 1,
            "POSITION": 0,
            "TEXCOORD_0": 2
          },
          "indices": 3,
          "material": 0,
          "mode": 4
        }
      ]
    },
    {
      "name": "pasted__Camera_Body_pasted__lambert3_0",
      "primitives": [
        {
          "attributes": {
            "NORMAL": 5,
            "POSITION": 4,
            "TEXCOORD_0": 6
          },
          "indices": 7,
          "material": 1,
          "mode": 4
        }
      ]
    },
    {
      "name": "pasted__Camera_Body_lambert1_0",
      "primitives": [
        {
          "attributes": {
            "NORMAL": 9,
            "POSITION": 8,
            "TEXCOORD_0": 10
          },
          "indices": 11,
          "material": 2,
          "mode": 4
        }
      ]
    },
    {
      "name": "pasted__Lense_pasted__lambert2_0",
      "primitives": [
        {
          "attributes": {
            "NORMAL": 13,
            "POSITION": 12,
            "TEXCOORD_0": 14
          },
          "indices": 15,
          "material": 0,
          "mode": 4
        }
      ]
    },
    {
      "name": "pasted__Lense_lambert1_0",
      "primitives": [
        {
          "attributes": {
            "NORMAL": 17,
            "POSITION": 16,
            "TEXCOORD_0": 18
          },
          "indices": 19,
          "material": 2,
          "mode": 4
        }
      ]
    },
    {
      "name": "pasted__Lense_pasted__lambert3_0",
      "primitives": [
        {
          "attributes": {
            "NORMAL": 21,
            "POSITION": 20,
            "TEXCOORD_0": 22
          },
          "indices": 23,
          "material": 1,
          "mode": 4
        }
      ]
    }
  ],
  "nodes": [
    {
      "children": [
        1
      ],
      "matrix": [
        1.0,
        0.0,
        0.0,
        0.0,
        0.0,
        2.220446049250313e-16,
        -1.0,
        0.0,
        0.0,
        1.0,
        2.220446049250313e-16,
        0.0,
        0.0,
        0.0,
        0.0,
        1.0
      ],
      "name": "Sketchfab_model"
    },
    {
      "children": [
        2
      ],
      "matrix": [
        1.0,
        0.0,
        0.0,
        0.0,
        0.0,
        0.0,
        1.0,
        0.0,
        0.0,
        -1.0,
        0.0,
        0.0,
        0.0,
        0.0,
        0.0,
        1.0
      ],
      "name": "4e2d4af7b8c9454b8efaa0aa2adf8741.fbx"
    },
    {
      "children": [
        3
      ],
      "name": "RootNode"
    },
    {
      "children": [
        4
      ],
      "name": "group"
    },
    {
      "children": [
        5,
        9
      ],
      "matrix": [
        1.0,
        0.0,
        0.0,
        0.0,
        0.0,
        1.0,
        0.0,
        0.0,
        0.0,
        0.0,
        1.0,
        0.0,
        -1.8845367431640625,
        0.0,
        0.0,
        1.0
      ],
      "name": "pasted__BodyAndLense_Camera"
    },
    {
      "children": [
        6,
        7,
        8
      ],
      "matrix": [
        1.0,
        0.0,
        0.0,
        0.0,
        0.0,
        1.0,
        0.0,
        0.0,
        0.0,
        0.0,
        1.0,
        0.0,
        0.0,
        0.0,
        -0.33387765288352966,
        1.0
      ],
      "name": "pasted__Camera_Body"
    },
    {
      "mesh": 0,
      "name": "pasted__Camera_Body_pasted__lambert2_0"
    },
    {
      "mesh": 1,
      "name": "pasted__Camera_Body_pasted__lambert3_0"
    },
    {
      "mesh": 2,
      "name": "pasted__Camera_Body_lambert1_0"
    },
    {
      "children": [
        10,
        11,
        12
      ],
      "matrix": [
        -2.399602059269987,
        -0.007448283092792815,
        -5.203332597367482e-18,
        0.0,
        -2.183990237169098e-18,
        -8.945624011444625e-16,
        2.0143754482269287,
        0.0,
        -0.0073946783253001375,
        2.382332292686251,
        5.289865809995323e-16,
        0.0,
        0.7189333438873291,
        3.040008783340454,
        1.9228907823562622,
        1.0
      ],
      "name": "pasted__Lense"
    },
    {
      "mesh": 3,
      "name": "pasted__Lense_pasted__lambert2_0"
    },
    {
      "mesh": 4,
      "name": "pasted__Lense_lambert1_0"
    },
    {
      "mesh": 5,
      "name": "pasted__Lense_pasted__lambert3_0"
    }
  ],
  "scene": 0,
  "scenes": [
    {
      "name": "Sketchfab_Scene",
      "nodes": [
        0
      ]
    }
  ]
}
