{
  "accessors": [
    {
      "bufferView": 2,
      "componentType": 5126,
      "count": 22281,
      "max": [
        4.910491943359375,
        14.10262680053711,
        4.910492420196533
      ],
      "min": [
        -6.103626251220703,
        0.0,
        -4.910495281219482
      ],
      "type": "VEC3"
    },
    {
      "bufferView": 2,
      "byteOffset": 267372,
      "componentType": 5126,
      "count": 22281,
      "max": [
        0.9999775290489197,
        1.0,
        1.0
      ],
      "min": [
        -0.9999775886535645,
        -0.9999998807907104,
        -1.0
      ],
      "type": "VEC3"
    },
    {
      "bufferView": 3,
      "componentType": 5126,
      "count": 22281,
      "max": [
        1.0,
        1.0,
        1.0,
        1.0
      ],
      "min": [
        -0.9999999403953552,
        -0.9981896877288818,
        -1.0,
        -1.0
      ],
      "type": "VEC4"
    },
    {
      "bufferView": 1,
      "componentType": 5126,
      "count": 22281,
      "max": [
        0.9936723709106445,
        0.9971612691879272
      ],
      "min": [
        0.005830204114317894,
        0.0011931773042306304
      ],
      "type": "VEC2"
    },
    {
      "bufferView": 0,
      "componentType": 5125,
      "count": 128064,
      "type": "SCALAR"
    }
  ],
  "asset": {
    "extras": {
      "author": "alechuxley (https://sketchfab.com/alechuxley)",
      "license": "CC-BY-4.0 (http://creativecommons.org/licenses/by/4.0/)",
      "source": "https://sketchfab.com/3d-models/tabletop-globe-643037e26a774123a7d1a75b615b7555",
      "title": "Tabletop Globe"
    },
    "generator": "Sketchfab-14.97.0",
    "version": "2.0"
  },
  "bufferViews": [
    {
      "buffer": 0,
      "byteLength": 512256,
      "name": "floatBufferViews",
      "target": 34963
    },
    {
      "buffer": 0,
      "byteLength": 178248,
      "byteOffset": 512256,
      "byteStride": 8,
      "name": "floatBufferViews",
      "target": 34962
    },
    {
      "buffer": 0,
      "byteLength": 534744,
      "byteOffset": 690504,
      "byteStride": 12,
      "name": "floatBufferViews",
      "target": 34962
    },
    {
      "buffer": 0,
      "byteLength": 356496,
      "byteOffset": 1225248,
      "byteStride": 16,
      "name": "floatBufferViews",
      "target": 34962
    }
  ],
  "buffers": [
    {
      "byteLength": 1581744,
      "uri": "globe.bin"
    }
  ],
  "images": [
    {
      "uri": "textures/GlobeMaterial_baseColor.png"
    },
    {
      "uri": "textures/GlobeMaterial_metallicRoughness.png"
    },
    {
      "uri": "textures/GlobeMaterial_normal.png"
    }
  ],
  "materials": [
    {
      "doubleSided": true,
      "name": "GlobeMaterial",
      "normalTexture": {
        "index": 2
      },
      "pbrMetallicRoughness": {
        "baseColorTexture": {
          "index": 0
        },
        "metallicRoughnessTexture": {
          "index": 1
        }
      }
    }
  ],
  "meshes": [
    {
      "name": "globe_GlobeMaterial_0",
      "primitives": [
        {
          "attributes": {
            "NORMAL": 1,
            "POSITION": 0,
            "TANGENT": 2,
            "TEXCOORD_0": 3
          },
          "indices": 4,
          "material": 0,
          "mode": 4
        }
      ]
    }
  ],
  "nodes": [
    {
      "children": [
        1
      ],
      "matrix": [
        1.0,
        0.0,
        0.0,
        0.0,
        0.0,
        2.220446049250313e-16,
        -1.0,
        0.0,
        0.0,
        1.0,
        2.220446049250313e-16,
        0.0,
        0.0,
        0.0,
        0.0,
        1.0
      ],
      "name": "Sketchfab_model"
    },
    {
      "children": [
        2
      ],
      "matrix": [
        0.009999999776482582,
        0.0,
        0.0,
        0.0,
        0.0,
        0.0,
        0.009999999776482582,
        0.0,
        0.0,
        -0.009999999776482582,
        0.0,
        0.0,
        0.0,
        0.0,
        0.0,
        1.0
      ],
      "name": "b7e210f4c8f94cbabbc6b86186043e53.fbx"
    },
    {
      "children": [
        3
      ],
      "name": "RootNode"
    },
    {
      "children": [
        4
      ],
      "name": "globe"
    },
    {
      "mesh": 0,
      "name": "globe_GlobeMaterial_0"
    }
  ],
  "samplers": [
    {
      "magFilter": 9729,
      "minFilter": 9987,
      "wrapS": 10497,
      "wrapT": 10497
    }
  ],
  "scene": 0,
  "scenes": [
    {
      "name": "Sketchfab_Scene",
      "nodes": [
        0
      ]
    }
  ],
  "textures": [
    {
      "sampler": 0,
      "source": 0
    },
    {
      "sampler": 0,
      "source": 1
    },
    {
      "sampler": 0,
      "source": 2
    }
  ]
}
